<svg width="10" height="6" viewBox="0 0 10 6" fill="none" xmlns="http://www.w3.org/2000/svg">
<path d="M8.65575 4.55668C8.64776 4.6614 8.61578 4.74195 8.51986 4.79029C8.42393 4.83862 8.336 4.88695 8.23208 4.79834C8.08019 4.66945 7.92031 4.54862 7.76043 4.41974C7.56858 4.26669 7.38472 4.10558 7.19287 3.95252C6.92907 3.72697 6.66527 3.50142 6.40147 3.27587C6.16964 3.08254 5.93782 2.88921 5.706 2.68783C5.49815 2.51061 5.29831 2.33339 5.09046 2.15617C4.95457 2.0434 4.81867 1.92256 4.68277 1.81784C4.65879 1.80173 4.60283 1.80979 4.57885 1.8259C4.34703 2.02728 4.11521 2.22867 3.88338 2.43005C3.57961 2.68783 3.27584 2.93754 2.97207 3.19532C2.70028 3.42087 2.43648 3.65448 2.17268 3.88003C1.87691 4.12974 1.58913 4.37946 1.29335 4.62918C1.21341 4.70168 1.12548 4.76612 1.02955 4.82251C0.909642 4.90306 0.717787 4.83056 0.669824 4.69362C0.581891 4.45196 0.693806 4.37946 0.885661 4.2103C1.17344 3.96058 1.46122 3.70281 1.757 3.45309C1.90888 3.3242 2.06876 3.20337 2.22065 3.07449C2.4125 2.91338 2.60435 2.73616 2.8042 2.57505C2.99606 2.41394 3.18791 2.26089 3.37976 2.09978C3.64356 1.87423 3.89937 1.64868 4.15517 1.42313C4.2591 1.33452 4.36302 1.24591 4.47493 1.16536C4.58685 1.0848 4.79469 1.13314 4.93059 1.25397C5.10645 1.40702 5.28232 1.56007 5.45818 1.71312C5.82591 2.02728 6.19363 2.3495 6.56135 2.66366C6.80916 2.8731 7.05697 3.06643 7.30478 3.27587C7.43268 3.38865 7.55259 3.50948 7.68849 3.62225C7.84037 3.75114 8.00025 3.87197 8.15214 4.00086C8.30402 4.12974 8.45591 4.25863 8.5998 4.39557C8.63977 4.41974 8.63977 4.49224 8.65575 4.55668Z" fill="white" stroke="white" stroke-width="1.09758"/>
</svg>
